<svg width="194" height="153" viewBox="0 0 194 153" fill="none" xmlns="http://www.w3.org/2000/svg">
<mask id="mask0" mask-type="alpha" maskUnits="userSpaceOnUse" x="0" y="0" width="194" height="153">
<path d="M194 153V0L0 0L0 153H194Z" fill="white"/>
</mask>
<g mask="url(#mask0)">
<path fill-rule="evenodd" clip-rule="evenodd" d="M14.5612 130.174C-0.737854 125.764 -3.28867 116.594 3.68298 111.31C10.1317 106.417 21.1012 102.751 21.1012 102.751L66.4003 86.2897V105.052L33.8032 116.978C28.0367 119.096 27.156 122.082 31.8405 123.647C36.522 125.213 44.9929 124.766 50.7652 122.65L66.4003 116.851V133.637C65.411 133.823 64.3087 134.004 63.2831 134.174C47.6422 136.792 30.9815 135.701 14.5612 130.174ZM110.131 132.127L160.959 113.622C166.731 111.505 167.612 108.521 162.927 106.954C158.243 105.388 149.769 105.833 144 107.952L110.131 120.145V100.742L112.088 100.064C112.088 100.064 121.872 96.5257 135.633 94.9727C149.394 93.4226 166.247 95.1814 179.472 100.302C194.384 105.118 196.062 112.213 192.271 117.101C188.482 121.987 179.197 125.469 179.197 125.469L110.131 150.825V132.127ZM116.074 12.1932C142.836 21.578 151.906 33.2663 151.906 59.5952C151.906 85.2548 136.404 94.983 116.704 85.2666V37.4472C116.704 31.8406 115.699 26.6753 110.542 25.2066C106.591 23.9112 104.14 27.6642 104.14 33.2708V153L72.5391 142.749V0C85.9783 2.54642 105.55 8.56901 116.074 12.1932ZM186.447 142.111C186.447 142.515 186.342 142.797 186.134 142.942C185.905 143.1 185.588 143.18 185.188 143.18H183.193V141.106H185.307C185.601 141.106 185.832 141.149 185.999 141.233C186.3 141.387 186.447 141.674 186.447 142.111ZM187.876 146.846C187.779 146.803 187.711 146.696 187.665 146.521C187.633 146.404 187.613 146.212 187.607 145.962L187.571 145.016C187.556 144.569 187.472 144.249 187.313 144.042C187.207 143.898 187.056 143.787 186.884 143.68C187.103 143.531 187.29 143.356 187.427 143.143C187.613 142.845 187.71 142.472 187.71 142.021C187.71 141.149 187.352 140.542 186.646 140.212C186.286 140.047 185.828 139.961 185.286 139.961H182.105H181.945V140.127V147.154V147.313H182.105H183.035H183.193V147.154V144.302H185.156C185.509 144.302 185.77 144.339 185.924 144.415C186.181 144.542 186.316 144.803 186.332 145.196L186.39 146.372C186.403 146.653 186.42 146.846 186.442 146.952C186.462 147.063 186.491 147.154 186.531 147.229L186.577 147.313H186.671H187.811H187.972V147.154V146.994V146.889L187.876 146.846ZM179.318 143.777C179.318 142.308 179.879 140.93 180.893 139.893C181.908 138.856 183.257 138.281 184.692 138.281C186.129 138.281 187.478 138.856 188.492 139.893C189.507 140.93 190.066 142.308 190.066 143.777C190.066 146.803 187.655 149.266 184.692 149.266C183.257 149.266 181.908 148.696 180.893 147.66C179.879 146.622 179.318 145.244 179.318 143.777ZM184.692 150.378C186.418 150.378 188.04 149.691 189.26 148.442C190.481 147.197 191.151 145.537 191.151 143.777C191.151 142.01 190.481 140.355 189.26 139.106C188.04 137.861 186.418 137.175 184.692 137.175C181.133 137.175 178.234 140.132 178.234 143.777C178.234 145.537 178.906 147.197 180.125 148.442C181.346 149.691 182.967 150.378 184.692 150.378Z" fill="#292C33"/>
</g>
</svg>
