<svg width="135" height="50" viewBox="0 0 135 50" fill="none" xmlns="http://www.w3.org/2000/svg">
<g clip-path="url(#clip0)">
<path d="M63.4011 10.1679C63.1125 10.0701 62.8173 9.99334 62.5177 9.93825C62.226 9.88639 61.9305 9.85979 61.6343 9.85874C61.4505 9.85931 61.2671 9.87705 61.0866 9.91174C60.9184 9.94204 60.7569 10.0019 60.6095 10.0884C60.4757 10.1692 60.3635 10.2814 60.2827 10.4153C60.1985 10.5631 60.1558 10.731 60.159 10.9011C60.1543 11.0447 60.1846 11.1872 60.2474 11.3163C60.3114 11.4504 60.405 11.5683 60.5212 11.6609C60.6804 11.7845 60.8521 11.8911 61.0336 11.9789C61.2771 12.1053 61.5279 12.2173 61.7845 12.3146C62.1378 12.4559 62.4558 12.5973 62.7474 12.7474C63.0125 12.8899 63.2588 13.065 63.4806 13.2686C63.6789 13.451 63.8356 13.6739 63.9399 13.9223C64.0458 14.2046 64.0967 14.5044 64.0901 14.8057C64.0967 15.1608 64.0179 15.5122 63.8604 15.8305C63.7034 16.1182 63.4792 16.3637 63.2067 16.546C62.9216 16.7388 62.6046 16.8793 62.2703 16.9612C61.921 17.0504 61.5619 17.0949 61.2014 17.0937C60.7987 17.0909 60.397 17.0554 60 16.9877C59.5715 16.9187 59.1512 16.8063 58.7456 16.652L59.0194 15.5566C59.3825 15.7171 59.7615 15.8385 60.1502 15.9188C60.4876 15.9877 60.8306 16.0261 61.1749 16.0337C61.5841 16.0563 61.9906 15.9547 62.341 15.7421C62.4857 15.6477 62.6017 15.5154 62.6764 15.3597C62.7512 15.2039 62.7818 15.0307 62.765 14.8587C62.7635 14.6959 62.7242 14.5356 62.6502 14.3905C62.5601 14.2435 62.4433 14.1146 62.3057 14.0107C62.1321 13.8801 61.9456 13.7676 61.7491 13.675C61.5194 13.569 61.2633 13.4541 60.9717 13.3481C60.6687 13.2221 60.3737 13.0775 60.0883 12.9153C59.8443 12.7727 59.6188 12.6007 59.417 12.4029C59.2364 12.2232 59.0924 12.0102 58.9929 11.7757C58.8924 11.5289 58.8414 11.2648 58.8428 10.9983C58.8346 10.6534 58.9169 10.3123 59.0813 10.0089C59.2371 9.72823 59.4545 9.48658 59.7173 9.3022C59.9861 9.11874 60.2851 8.98417 60.6007 8.90468C60.9203 8.84018 61.2468 8.81643 61.5724 8.834C61.9547 8.80533 62.3386 8.80533 62.7209 8.834C63.0519 8.88111 63.3774 8.96101 63.6926 9.07252L63.4011 10.1679Z" fill="#292C33"/>
<path d="M71.0601 13.9666C71.065 14.4106 70.9964 14.8524 70.8569 15.274C70.7291 15.6355 70.5275 15.9664 70.265 16.2457C70.0067 16.5195 69.6895 16.731 69.3375 16.8641C68.9449 17.0104 68.5285 17.0823 68.1095 17.0761C67.6935 17.0822 67.28 17.0103 66.8905 16.8641C66.5543 16.7252 66.2527 16.5141 66.0071 16.2457C65.7446 15.9664 65.543 15.6355 65.4152 15.274C65.2715 14.8535 65.2027 14.4109 65.212 13.9666C65.1892 13.5278 65.243 13.0883 65.371 12.668C65.4988 12.3066 65.7004 11.9757 65.9629 11.6963C66.2135 11.4382 66.5141 11.2338 66.8463 11.0956C67.2358 10.9494 67.6493 10.8775 68.0654 10.8836C68.4837 10.8748 68.9001 10.9437 69.2933 11.0867C69.6432 11.22 69.9597 11.428 70.2209 11.6963C70.4834 11.9757 70.6849 12.3066 70.8127 12.668C70.9666 13.0842 71.0502 13.523 71.0601 13.9666ZM69.7527 13.9666C69.7568 13.6693 69.7242 13.3725 69.6555 13.0832C69.599 12.8451 69.497 12.6201 69.3551 12.4207C69.2261 12.231 69.0493 12.0787 68.8428 11.979C68.6148 11.8676 68.3632 11.813 68.1095 11.82C67.856 11.8141 67.6047 11.8686 67.3763 11.979C67.1749 12.0863 66.9998 12.2372 66.864 12.4207C66.7266 12.6248 66.6278 12.8523 66.5724 13.092C66.4982 13.3804 66.4654 13.6778 66.4753 13.9754C66.4502 14.5173 66.5921 15.0538 66.8816 15.5125C67.0194 15.7077 67.2041 15.8651 67.4187 15.9701C67.6333 16.0751 67.8709 16.1243 68.1095 16.1132C68.3501 16.1267 68.5902 16.0795 68.8078 15.9761C69.0254 15.8727 69.2136 15.7164 69.3551 15.5214C69.6576 15.0607 69.8089 14.5173 69.788 13.9666H69.7527Z" fill="#292C33"/>
<path d="M73.5601 11.016V11.8464C73.729 11.5349 73.9918 11.2846 74.311 11.1308C74.658 10.9637 75.0389 10.8791 75.424 10.8835C75.7174 10.8679 76.011 10.9115 76.2872 11.0116C76.5634 11.1118 76.8166 11.2665 77.0318 11.4665C77.2353 11.6728 77.3938 11.919 77.4972 12.1897C77.6006 12.4604 77.6467 12.7495 77.6325 13.0389V16.9435H76.3516V13.516C76.355 13.2848 76.3342 13.0538 76.2898 12.8269C76.2617 12.6375 76.1923 12.4566 76.0866 12.2969C75.9896 12.1542 75.8551 12.0411 75.6979 11.97C75.3262 11.8229 74.9124 11.8229 74.5407 11.97C74.3604 12.0358 74.1973 12.1415 74.0636 12.2792C73.9169 12.4414 73.8029 12.6303 73.7279 12.8358C73.6279 13.1191 73.5829 13.4189 73.5954 13.7191V16.9965H72.288V11.016H73.5601Z" fill="#292C33"/>
<path d="M81.5018 15.3801L83.1184 11.0161H84.4965L81.2721 19.1345H79.8498L80.8216 16.7847L78.4452 11.0161H79.8675L81.5018 15.3801Z" fill="#292C33"/>
<path d="M59.1873 20.7598H60.53V28.7721H59.1873V20.7598Z" fill="#292C33"/>
<path d="M63.4894 22.8447V23.6751C63.6625 23.3668 63.924 23.1176 64.2403 22.9596C64.592 22.7879 64.9798 22.703 65.371 22.7122C65.6643 22.6976 65.9576 22.7417 66.2336 22.8418C66.5097 22.9419 66.763 23.096 66.9788 23.2952C67.1823 23.5015 67.3407 23.7478 67.4441 24.0184C67.5475 24.2891 67.5936 24.5783 67.5795 24.8677V28.7723H66.2544V25.3535C66.2533 25.1196 66.2327 24.8862 66.1926 24.6557C66.1645 24.4662 66.0951 24.2853 65.9894 24.1256C65.888 23.987 65.7547 23.8749 65.6007 23.7988C65.4015 23.7185 65.1882 23.6795 64.9735 23.6839C64.7888 23.685 64.606 23.721 64.4346 23.7899C64.2565 23.8592 64.0964 23.9679 63.9664 24.108C63.822 24.2685 63.7082 24.4541 63.6307 24.6557C63.5361 24.9251 63.4912 25.2094 63.4982 25.4949V28.7723H62.2173V22.8447H63.4894Z" fill="#292C33"/>
<path d="M68.5689 22.8447H69.5848V21.3076H70.8922V22.8447H72.2173V23.8518H70.8922V26.9525C70.8818 27.1143 70.8818 27.2766 70.8922 27.4384C70.9008 27.5406 70.9375 27.6384 70.9982 27.721C71.0533 27.7923 71.1313 27.8423 71.2191 27.8624C71.3425 27.8739 71.4667 27.8739 71.5901 27.8624H71.9081H72.1908V28.8164L71.7315 28.8695H71.2014C70.9024 28.8848 70.6032 28.8458 70.318 28.7546C70.1254 28.6949 69.9538 28.5815 69.8233 28.4278C69.6986 28.2751 69.6164 28.0923 69.5848 27.8977C69.5469 27.6611 69.5292 27.4218 69.5318 27.1822V23.8518H68.5689V22.8447Z" fill="#292C33"/>
<path d="M74.2933 26.1836C74.3017 26.4327 74.3628 26.6771 74.4724 26.9009C74.582 27.1247 74.7377 27.3228 74.9293 27.4822C75.3422 27.7954 75.8515 27.9547 76.3693 27.9327C76.6326 27.9337 76.8956 27.9131 77.1555 27.8709C77.4107 27.8311 77.662 27.769 77.9064 27.6854L78.083 28.6394C77.4932 28.8327 76.875 28.9253 76.2544 28.9133C75.7821 28.9199 75.3124 28.8421 74.8675 28.6836C74.4876 28.5419 74.1415 28.3222 73.8516 28.0387C73.5735 27.7649 73.3594 27.4331 73.2244 27.067C72.9478 26.2596 72.9478 25.3832 73.2244 24.5758C73.3479 24.211 73.5432 23.8746 73.7986 23.5864C74.045 23.3124 74.3459 23.0927 74.682 22.9415C75.0632 22.786 75.4717 22.7079 75.8834 22.7119C76.2728 22.7053 76.6598 22.7743 77.023 22.915C77.3385 23.0469 77.6196 23.2494 77.8445 23.5069C78.0713 23.7636 78.2427 24.0644 78.3481 24.3903C78.4667 24.7888 78.5262 25.2025 78.5247 25.6182V26.1748L74.2933 26.1836ZM75.9011 23.6306C75.6962 23.6219 75.4919 23.6568 75.3015 23.7329C75.1112 23.809 74.9392 23.9247 74.7968 24.0723C74.5043 24.3944 74.3271 24.8046 74.2933 25.2384H77.3145C77.3428 24.8221 77.2099 24.411 76.9435 24.0899C76.8148 23.9407 76.6545 23.822 76.4742 23.7425C76.2938 23.6631 76.098 23.6248 75.9011 23.6306Z" fill="#292C33"/>
<path d="M83.0389 23.737C82.8769 23.6985 82.7107 23.6807 82.5442 23.684C82.3544 23.6833 82.166 23.7162 81.9876 23.7812C81.8035 23.8522 81.6396 23.9675 81.5106 24.1169C81.3645 24.2918 81.2589 24.497 81.2014 24.7176C81.12 25.0048 81.0813 25.3024 81.0866 25.601V28.7635H79.735V22.8448H81.0071V23.631C81.1489 23.338 81.3778 23.0959 81.6624 22.9378C81.947 22.7797 82.2734 22.7132 82.5972 22.7476H82.8004H83.0301L83.0389 23.737Z" fill="#292C33"/>
<path d="M87.1732 24.9119C87.182 24.7494 87.1566 24.5869 87.0988 24.4347C87.041 24.2826 86.952 24.1442 86.8375 24.0286C86.5332 23.7932 86.152 23.6799 85.7686 23.7105C85.5191 23.7178 85.2707 23.7474 85.0265 23.7989C84.7494 23.8555 84.4776 23.9353 84.2138 24.0374L83.9223 23.0568C84.5348 22.8484 85.1749 22.7323 85.8216 22.7123C86.5203 22.662 87.2145 22.859 87.7827 23.2688C88.0116 23.4741 88.191 23.7286 88.3073 24.0132C88.4236 24.2978 88.4738 24.6051 88.4541 24.9119V27.4296C88.4541 27.6416 88.4541 27.8625 88.4541 28.1098C88.4686 28.3319 88.4952 28.5531 88.5336 28.7724H87.4558C87.4558 28.6752 87.4028 28.5427 87.3763 28.3925C87.3498 28.2423 87.3763 28.101 87.3145 27.9685C87.1502 28.2562 86.9084 28.4919 86.6166 28.6487C86.2657 28.8332 85.8733 28.9244 85.4771 28.9137C85.2208 28.9124 84.9657 28.8798 84.7173 28.8165C84.474 28.7581 84.2454 28.6498 84.046 28.4985C83.8415 28.3512 83.675 28.1574 83.5601 27.9331C83.4301 27.6729 83.3664 27.3847 83.3746 27.0939C83.3567 26.7201 83.4691 26.3517 83.6926 26.0515C83.9199 25.7611 84.2269 25.5432 84.576 25.4243C84.9323 25.276 85.3065 25.175 85.6891 25.124C86.176 25.0696 86.6656 25.0431 87.1555 25.0445L87.1732 24.9119ZM86.9258 25.9013C86.6166 25.9013 86.3251 25.9013 86.0424 25.9455C85.7876 25.9668 85.5374 26.0263 85.3004 26.1222C85.1072 26.2071 84.9375 26.3374 84.8057 26.5021C84.6714 26.659 84.6019 26.8611 84.6113 27.0674C84.6033 27.1925 84.622 27.3178 84.6662 27.4351C84.7104 27.5524 84.779 27.6589 84.8675 27.7476C84.9704 27.8392 85.0907 27.9091 85.2213 27.9531C85.3518 27.9971 85.4899 28.0144 85.6272 28.0038C85.8666 28.0094 86.1044 27.9642 86.3251 27.8713C86.5164 27.7915 86.6859 27.6674 86.8198 27.5091C86.9494 27.3604 87.0458 27.1857 87.1025 26.9968C87.164 26.8025 87.1938 26.5997 87.1908 26.396V25.9367L86.9258 25.9013Z" fill="#292C33"/>
<path d="M93.9576 23.9045C93.7862 23.8249 93.605 23.7684 93.4187 23.7367C93.2411 23.7028 93.0607 23.6851 92.8799 23.6837C92.5932 23.6785 92.3092 23.7389 92.0495 23.8603C91.8153 23.9589 91.6089 24.1136 91.4488 24.3109C91.2809 24.5105 91.1547 24.7418 91.0777 24.9911C90.9959 25.2603 90.9543 25.5401 90.9541 25.8215C90.9536 26.1 90.9952 26.377 91.0777 26.643C91.1567 26.8888 91.2827 27.1168 91.4488 27.3144C91.6156 27.5144 91.8275 27.6718 92.0671 27.7738C92.3469 27.8892 92.6481 27.9434 92.9505 27.9328C93.1339 27.9316 93.317 27.9168 93.4982 27.8886C93.6843 27.8558 93.8654 27.7994 94.0371 27.7208L94.258 28.6837C94.0353 28.7672 93.8043 28.8265 93.5689 28.8603C93.335 28.8959 93.0988 28.9136 92.8622 28.9133C92.3919 28.9215 91.9243 28.8406 91.4841 28.6748C91.1072 28.5332 90.7663 28.31 90.4859 28.0211C90.2212 27.7418 90.0167 27.411 89.8852 27.0494C89.7515 26.654 89.6857 26.2388 89.6908 25.8215C89.685 25.3939 89.7569 24.9689 89.9028 24.567C90.044 24.2041 90.2574 23.8735 90.53 23.5953C90.8108 23.3131 91.1479 23.0933 91.5194 22.9504C91.9445 22.7856 92.3975 22.7046 92.8534 22.7119C93.3303 22.7016 93.8054 22.7733 94.258 22.9239L93.9576 23.9045Z" fill="#292C33"/>
<path d="M94.8852 22.8447H95.8922V21.3076H97.1732V22.8447H98.5071V23.8518H97.1732V26.9525C97.162 27.1143 97.162 27.2766 97.1732 27.4384C97.1818 27.5406 97.2185 27.6384 97.2792 27.721C97.3324 27.7901 97.4069 27.8398 97.4912 27.8624C97.6176 27.8735 97.7447 27.8735 97.871 27.8624H98.1891H98.4718V28.8164L98.0124 28.8695H97.4823C97.1834 28.8848 96.8841 28.8458 96.599 28.7546C96.4049 28.6926 96.231 28.5798 96.0954 28.4278C95.9769 28.2724 95.898 28.0905 95.8657 27.8977C95.8245 27.6614 95.8038 27.422 95.8039 27.1822V23.8518H94.7968L94.8852 22.8447Z" fill="#292C33"/>
<path d="M101.069 20.5742V21.7668H99.7262V20.5742H101.069ZM101.069 22.8445V28.7721H99.735V22.8445H101.069Z" fill="#292C33"/>
<path d="M105.018 27.6415L106.625 22.8447H108.012L105.742 28.7723H104.24L101.996 22.8447H103.419L105.018 27.6415Z" fill="#292C33"/>
<path d="M109.673 26.1836C109.681 26.432 109.74 26.676 109.848 26.8998C109.956 27.1236 110.11 27.322 110.3 27.4822C110.717 27.7954 111.229 27.9546 111.749 27.9327C112.012 27.9334 112.275 27.9127 112.535 27.8709C112.791 27.8311 113.042 27.769 113.286 27.6854L113.454 28.6394C112.867 28.8334 112.252 28.926 111.634 28.9133C111.162 28.9199 110.692 28.8421 110.247 28.6836C109.865 28.542 109.516 28.3224 109.223 28.0387C108.95 27.7625 108.739 27.4312 108.604 27.067C108.455 26.6689 108.383 26.2463 108.392 25.8214C108.386 25.3982 108.452 24.9771 108.587 24.5758C108.71 24.209 108.908 23.8719 109.17 23.5864C109.415 23.311 109.716 23.0911 110.053 22.9415C110.434 22.785 110.843 22.7069 111.254 22.7119C111.644 22.7053 112.031 22.7743 112.394 22.915C112.71 23.0469 112.991 23.2494 113.216 23.5069C113.442 23.7621 113.611 24.0635 113.71 24.3903C113.828 24.7797 113.884 25.185 113.878 25.5917V26.1483L109.673 26.1836ZM111.307 23.6306C111.101 23.6229 110.896 23.6581 110.704 23.7342C110.513 23.8102 110.339 23.9254 110.194 24.0723C109.908 24.3977 109.735 24.8066 109.7 25.2384H112.712C112.74 24.8221 112.607 24.411 112.341 24.0899C112.214 23.9409 112.055 23.8222 111.876 23.7427C111.698 23.6632 111.503 23.6249 111.307 23.6306Z" fill="#292C33"/>
<path d="M59.1873 32.5884H63.9046V33.6573H60.5035V35.9541H63.6042V37.0318H60.5035V39.5407H63.9841V40.6361H59.1873V32.5884Z" fill="#292C33"/>
<path d="M66.6696 34.6731V35.5565C66.8418 35.2444 67.1075 34.9942 67.4293 34.8409C67.7751 34.6693 68.1564 34.5815 68.5424 34.5848C68.8357 34.5702 69.129 34.6142 69.405 34.7143C69.6811 34.8144 69.9344 34.9686 70.1502 35.1678C70.3517 35.3751 70.5082 35.6218 70.61 35.8923C70.7119 36.1629 70.7568 36.4515 70.7421 36.7402V40.636H69.4523V37.1819C69.4539 36.9482 69.4362 36.7148 69.3993 36.4841C69.3685 36.2939 69.2961 36.1129 69.1873 35.954C69.0912 35.8126 68.9562 35.7022 68.7986 35.636C68.6041 35.5506 68.3924 35.5113 68.1802 35.5212C67.9964 35.5227 67.8141 35.5555 67.6414 35.6183C67.4638 35.6886 67.3039 35.7972 67.1732 35.9363C67.0203 36.0939 66.9055 36.2842 66.8375 36.4929C66.7421 36.7621 66.6972 37.0466 66.705 37.3321V40.636H65.371V34.6731H66.6696Z" fill="#292C33"/>
<path d="M71.7491 34.6733H72.7562V33.1362H74.0636V34.6733H75.3975V35.6539H74.0636V38.7546C74.0525 38.9164 74.0525 39.0787 74.0636 39.2405C74.074 39.345 74.1104 39.4452 74.1696 39.532C74.2257 39.5961 74.2995 39.6421 74.3816 39.6645C74.5077 39.6807 74.6354 39.6807 74.7615 39.6645H75.0884H75.371V40.6362L74.9117 40.6804C74.735 40.6804 74.5583 40.6804 74.3816 40.6804C74.0834 40.6931 73.785 40.6573 73.4982 40.5744C73.3034 40.5095 73.1295 40.3936 72.9947 40.2387C72.8732 40.0851 72.794 39.9024 72.765 39.7087C72.7198 39.4759 72.6991 39.239 72.7032 39.002V35.6539H71.7491V34.6733Z" fill="#292C33"/>
<path d="M77.4735 37.9859C77.4808 38.2343 77.5405 38.4783 77.6486 38.7021C77.7567 38.9258 77.9107 39.1243 78.1007 39.2845C78.517 39.5976 79.029 39.7569 79.5495 39.735C79.8128 39.7357 80.0757 39.715 80.3357 39.6732C80.5925 39.6417 80.8446 39.5794 81.0866 39.4876L81.2721 40.477C80.6839 40.6636 80.0693 40.7532 79.4523 40.7421C78.98 40.7487 78.5103 40.6709 78.0654 40.5124C77.6843 40.3718 77.3357 40.1555 77.0406 39.8763C76.7647 39.5991 76.5535 39.2643 76.4223 38.8958C76.2773 38.4967 76.2055 38.0747 76.2103 37.6502C76.2052 37.2271 76.2709 36.8061 76.4046 36.4046C76.5297 36.0386 76.7281 35.7019 76.9876 35.4152C77.2351 35.1423 77.5357 34.9228 77.871 34.7703C78.252 34.6138 78.6606 34.5357 79.0725 34.5406C79.4628 34.5326 79.8507 34.6048 80.212 34.7527C80.5289 34.8779 80.8108 35.0779 81.0336 35.3357C81.2605 35.5909 81.4293 35.8923 81.5283 36.2191C81.6457 36.6116 81.7023 37.0197 81.6961 37.4293V37.9859H77.4735ZM79.0813 35.4329C78.8744 35.4246 78.6681 35.4605 78.4762 35.5382C78.2843 35.6159 78.1111 35.7336 77.9682 35.8834C77.6679 36.2207 77.4931 36.6513 77.4735 37.1025H80.4947C80.5175 36.6828 80.3819 36.2698 80.1149 35.9452C79.9893 35.7928 79.8314 35.6701 79.6527 35.5861C79.474 35.5021 79.2788 35.4588 79.0813 35.4594V35.4329Z" fill="#292C33"/>
<path d="M86.1661 35.5653C86.0016 35.5485 85.8359 35.5485 85.6714 35.5653C85.4841 35.5604 85.2978 35.5935 85.1237 35.6625C84.9379 35.726 84.7729 35.839 84.6467 35.9894C84.4991 36.168 84.3907 36.3757 84.3286 36.5989C84.2505 36.8868 84.2119 37.184 84.2138 37.4823V40.636H82.9064V34.6731H84.1873V35.4593C84.3276 35.167 84.5549 34.9252 84.838 34.7671C85.121 34.6089 85.4461 34.5422 85.7686 34.5759H85.9806H86.2103L86.1661 35.5653Z" fill="#292C33"/>
<path d="M86.7315 34.6733H87.7385V33.1362H89.046V34.6733H90.3799V35.6539H89.046V38.7546C89.0348 38.9164 89.0348 39.0787 89.046 39.2405C89.0537 39.3442 89.0871 39.4444 89.1431 39.532C89.2043 39.5942 89.2803 39.6399 89.364 39.6645C89.4901 39.6807 89.6177 39.6807 89.7438 39.6645H90.106H90.3799V40.6362L89.9293 40.6804C89.7527 40.6804 89.576 40.6804 89.3993 40.6804C89.101 40.6931 88.8027 40.6573 88.5159 40.5744C88.3201 40.5116 88.1457 40.3953 88.0124 40.2387C87.8909 40.0851 87.8117 39.9024 87.7827 39.7087C87.7374 39.4759 87.7167 39.239 87.7209 39.002V35.6539H86.7315V34.6733Z" fill="#292C33"/>
<path d="M95 36.7404C95.0071 36.5773 94.9801 36.4145 94.9208 36.2624C94.8615 36.1103 94.7711 35.9723 94.6555 35.857C94.3488 35.6271 93.9687 35.5172 93.5866 35.5478C93.3402 35.5513 93.0947 35.5779 92.8534 35.6274C92.576 35.687 92.3042 35.7697 92.0406 35.8747L91.7756 34.9206C92.0614 34.8119 92.3573 34.732 92.659 34.6821C92.9985 34.6075 93.345 34.569 93.6926 34.5673C94.3913 34.517 95.0855 34.714 95.6537 35.1238C95.8816 35.3295 96.0596 35.5843 96.1744 35.869C96.2892 36.1537 96.3377 36.4607 96.3163 36.7669V39.2846C96.3163 39.4966 96.3163 39.7263 96.3163 39.9736C96.3221 40.1965 96.3487 40.4183 96.3958 40.6362H95.2385C95.1991 40.5126 95.1725 40.3853 95.159 40.2563C95.159 40.1062 95.159 39.9648 95.0972 39.8235C94.9374 40.1146 94.6944 40.3514 94.3993 40.5037C94.052 40.6893 93.6622 40.7807 93.2686 40.7687C93.0094 40.7679 92.7512 40.7353 92.5 40.6715C92.2591 40.6106 92.0315 40.5058 91.8286 40.3623C91.6289 40.2087 91.466 40.0126 91.3516 39.7881C91.2216 39.5279 91.1579 39.2397 91.1661 38.9489C91.1506 38.5768 91.2594 38.21 91.4753 37.9065C91.7063 37.62 92.012 37.4029 92.3587 37.2793C92.7503 37.1286 93.1603 37.0306 93.5777 36.9878C94.0646 36.9332 94.5542 36.9066 95.0442 36.9083L95 36.7404ZM94.7527 37.7298C94.4435 37.7298 94.152 37.7298 93.8693 37.7298C93.6123 37.7554 93.3598 37.8148 93.1184 37.9065C92.9248 37.9832 92.7501 38.1007 92.606 38.251C92.4787 38.4147 92.413 38.618 92.4205 38.8252C92.4125 38.9503 92.4312 39.0756 92.4754 39.1929C92.5196 39.3102 92.5882 39.4167 92.6767 39.5054C92.779 39.5948 92.8981 39.6627 93.0271 39.7052C93.1561 39.7476 93.2922 39.7638 93.4276 39.7528C93.6697 39.7575 93.9103 39.7124 94.1343 39.6203C94.3256 39.5405 94.4951 39.4163 94.629 39.2581C94.7553 39.1071 94.8513 38.9331 94.9117 38.7457C94.9731 38.5515 95.003 38.3487 95 38.145V37.6857L94.7527 37.7298Z" fill="#292C33"/>
<path d="M99.258 32.4116V33.5689H97.9152V32.4116H99.258ZM99.258 34.6731V40.636H97.9505V34.6731H99.258Z" fill="#292C33"/>
<path d="M102.262 34.673V35.5564C102.43 35.2449 102.693 34.9946 103.012 34.8408C103.358 34.6701 103.74 34.5823 104.125 34.5846C104.419 34.569 104.712 34.6126 104.989 34.7128C105.265 34.8129 105.518 34.9676 105.733 35.1677C105.936 35.3746 106.094 35.6209 106.197 35.8914C106.3 36.1619 106.347 36.4508 106.334 36.7401V40.6359H105.027V37.1818C105.03 36.9477 105.009 36.7138 104.965 36.4839C104.937 36.2945 104.867 36.1136 104.761 35.9539C104.665 35.8125 104.53 35.702 104.373 35.6359C104.178 35.5522 103.967 35.513 103.754 35.521C103.568 35.5224 103.383 35.5552 103.207 35.6182C103.031 35.6928 102.872 35.8008 102.739 35.9362C102.592 36.0984 102.478 36.2873 102.403 36.4928C102.307 36.762 102.263 37.0465 102.27 37.332V40.6359H100.963V34.673H102.262Z" fill="#292C33"/>
<path d="M109.099 34.6733V35.5566C109.251 35.2404 109.502 34.9827 109.815 34.8234C110.142 34.6548 110.506 34.567 110.875 34.5672C111.233 34.5297 111.594 34.6026 111.91 34.7763C112.226 34.95 112.481 35.2161 112.641 35.539C112.837 35.2146 113.122 34.9538 113.463 34.7881C113.801 34.6339 114.169 34.5584 114.541 34.5672C114.869 34.5602 115.195 34.6141 115.504 34.7263C115.76 34.8215 115.992 34.9724 116.184 35.168C116.366 35.3619 116.502 35.5944 116.581 35.8482C116.673 36.1335 116.718 36.4318 116.714 36.7316V40.6362H115.406V37.1821C115.428 36.9441 115.428 36.7046 115.406 36.4665C115.381 36.2915 115.321 36.1233 115.23 35.9718C115.145 35.8233 115.015 35.7057 114.859 35.6361C114.676 35.5524 114.476 35.513 114.276 35.5213C114.11 35.5211 113.946 35.5479 113.79 35.6008C113.631 35.658 113.487 35.7483 113.366 35.8658C113.233 35.9949 113.13 36.1518 113.065 36.3252C112.988 36.5374 112.949 36.7618 112.951 36.9877V40.6362H111.643V37.1026C111.658 36.882 111.658 36.6606 111.643 36.44C111.621 36.26 111.564 36.0859 111.475 35.9277C111.385 35.7934 111.26 35.6864 111.113 35.6185C110.925 35.5421 110.724 35.506 110.521 35.5125C110.343 35.5139 110.167 35.5468 110 35.6096C109.836 35.6773 109.688 35.7797 109.567 35.91C109.432 36.0646 109.33 36.2449 109.267 36.44C109.174 36.7007 109.132 36.9765 109.143 37.2528V40.6362H107.836V34.6733H109.099Z" fill="#292C33"/>
<path d="M119.258 37.986C119.265 38.2344 119.325 38.4784 119.433 38.7022C119.541 38.926 119.695 39.1244 119.885 39.2846C120.301 39.5978 120.813 39.757 121.334 39.7351C121.597 39.7358 121.86 39.7151 122.12 39.6733C122.377 39.6418 122.629 39.5795 122.871 39.4878L123.039 40.4507C122.451 40.6373 121.836 40.7268 121.219 40.7157C120.747 40.7223 120.277 40.6445 119.832 40.486C119.45 40.3475 119.101 40.1309 118.807 39.85C118.531 39.5728 118.32 39.2379 118.189 38.8694C118.04 38.4714 117.968 38.0487 117.977 37.6238C117.972 37.2007 118.038 36.7797 118.171 36.3782C118.296 36.0122 118.495 35.6756 118.754 35.3888C119.002 35.1159 119.302 34.8965 119.638 34.744C120.019 34.5875 120.427 34.5093 120.839 34.5143C121.23 34.5062 121.617 34.5784 121.979 34.7263C122.295 34.8603 122.574 35.0695 122.792 35.3358C123.018 35.591 123.187 35.8924 123.286 36.2192C123.404 36.6117 123.46 37.0199 123.454 37.4295V37.986H119.258ZM120.866 35.433C120.659 35.4247 120.453 35.4606 120.261 35.5383C120.069 35.616 119.896 35.7337 119.753 35.8835C119.452 36.2208 119.278 36.6514 119.258 37.1026H122.27C122.3 36.6835 122.167 36.2691 121.899 35.9454C121.772 35.7906 121.611 35.6665 121.429 35.5824C121.247 35.4983 121.049 35.4563 120.848 35.4595L120.866 35.433Z" fill="#292C33"/>
<path d="M125.954 34.6731V35.5565C126.126 35.2444 126.392 34.9942 126.714 34.8409C127.06 34.6693 127.441 34.5815 127.827 34.5848C128.12 34.5702 128.413 34.6142 128.689 34.7143C128.966 34.8144 129.219 34.9686 129.435 35.1678C129.636 35.3751 129.793 35.6218 129.894 35.8923C129.996 36.1629 130.041 36.4515 130.027 36.7402V40.636H128.719V37.1819C128.721 36.9482 128.703 36.7148 128.666 36.4841C128.635 36.2939 128.563 36.1129 128.454 35.954C128.358 35.8126 128.223 35.7022 128.065 35.636C127.871 35.5506 127.659 35.5113 127.447 35.5212C127.263 35.5227 127.081 35.5555 126.908 35.6183C126.731 35.6886 126.571 35.7972 126.44 35.9363C126.287 36.0956 126.17 36.2853 126.095 36.4929C126 36.7621 125.955 37.0466 125.963 37.3321V40.636H124.655V34.6731H125.954Z" fill="#292C33"/>
<path d="M131.034 34.6733H132.041V33.1362H133.392V34.6733H134.726V35.6539H133.392V38.7546C133.381 38.9164 133.381 39.0787 133.392 39.2405C133.4 39.3442 133.433 39.4444 133.489 39.532C133.551 39.5942 133.627 39.6399 133.71 39.6645C133.836 39.6807 133.964 39.6807 134.09 39.6645H134.408H134.682V40.6362L134.231 40.6804C134.055 40.6804 133.878 40.6804 133.701 40.6804C133.403 40.6931 133.105 40.6573 132.818 40.5744C132.622 40.5116 132.448 40.3953 132.314 40.2387C132.193 40.0851 132.114 39.9024 132.085 39.7087C132.04 39.4759 132.019 39.239 132.023 39.002V35.6539H131.016L131.034 34.6733Z" fill="#292C33"/>
<path d="M25.002 0.00140038L0.00338745 25L25.002 49.9986L50.0006 25L25.002 0.00140038Z" fill="white"/>
<path d="M24.9708 0.943346L0.93412 24.98L24.9708 49.0166L49.0074 24.98L24.9708 0.943346Z" fill="url(#paint0_linear)"/>
<path d="M26.2898 6.84619L16.5548 16.5723L26.2898 26.2985V6.84619Z" fill="url(#paint1_linear)"/>
<path d="M23.6307 43.1184L33.3657 33.3922L23.6307 23.6572V43.1184Z" fill="url(#paint2_linear)"/>
</g>
<defs>
<linearGradient id="paint0_linear" x1="0.937217" y1="24.9826" x2="49.0026" y2="24.9826" gradientUnits="userSpaceOnUse">
<stop stop-color="#EF4123"/>
<stop offset="0.02" stop-color="#EF4123"/>
<stop offset="0.08" stop-color="#F04A21"/>
<stop offset="0.17" stop-color="#F2621C"/>
<stop offset="0.29" stop-color="#F68A13"/>
<stop offset="0.43" stop-color="#FCC106"/>
<stop offset="0.5" stop-color="#FFDD00"/>
<stop offset="0.57" stop-color="#FCC106"/>
<stop offset="0.71" stop-color="#F68A13"/>
<stop offset="0.83" stop-color="#F2621C"/>
<stop offset="0.92" stop-color="#F04A21"/>
<stop offset="0.98" stop-color="#EF4123"/>
<stop offset="1" stop-color="#EF4123"/>
</linearGradient>
<linearGradient id="paint1_linear" x1="29.6025" y1="16.5723" x2="16.7668" y2="16.5723" gradientUnits="userSpaceOnUse">
<stop offset="0.2" stop-color="#FFDA00"/>
<stop offset="0.29" stop-color="#FDC804"/>
<stop offset="0.48" stop-color="#F9970D"/>
<stop offset="0.75" stop-color="#F14B1B"/>
<stop offset="0.9" stop-color="#ED1C24"/>
</linearGradient>
<linearGradient id="paint2_linear" x1="54069.7" y1="146989" x2="54211.2" y2="146989" gradientUnits="userSpaceOnUse">
<stop offset="0.2" stop-color="#FFDA00"/>
<stop offset="0.29" stop-color="#FDC804"/>
<stop offset="0.48" stop-color="#F9970D"/>
<stop offset="0.75" stop-color="#F14B1B"/>
<stop offset="0.9" stop-color="#ED1C24"/>
</linearGradient>
<clipPath id="clip0">
<rect width="134.682" height="50" fill="white"/>
</clipPath>
</defs>
</svg>
